<svg xmlns="http://www.w3.org/2000/svg" width="48" height="48" fill="none" id="amazon"><path fill="#fff" d="M0 24C0 10.745 10.745 0 24 0s24 10.745 24 24-10.745 24-24 24S0 37.255 0 24Z"></path><path fill="#221F1F" fill-rule="evenodd" d="M18.423 20.968c-.594.855-.891 1.885-.891 3.091h-.004c0 1.52.432 2.695 1.296 3.523.864.828 1.97 1.242 3.313 1.242.873 0 1.607-.086 2.201-.263.942-.262 1.901-.925 2.88-1.99.071.087.193.257.37.512.173.254.299.422.378.512.077.086.209.226.392.417.184.193.396.395.641.603.297.123.551.105.76-.054.122-.104.907-.783 2.358-2.043.14-.104.209-.227.209-.365 0-.123-.052-.263-.157-.42l-.6-.8c-.123-.165-.253-.435-.379-.813a3.67 3.67 0 0 1-.198-1.242v-6.337c0-.068-.007-.291-.025-.666-.018-.374-.043-.62-.08-.734a18.945 18.945 0 0 1-.158-.612c-.068-.3-.144-.526-.234-.684a4.533 4.533 0 0 0-.354-.537c-.15-.2-.31-.389-.483-.563-1.12-1.03-2.673-1.545-4.663-1.545h-.653c-1.552.086-2.91.506-4.072 1.257-1.16.75-1.889 1.902-2.186 3.456a.742.742 0 0 0-.026.184c0 .244.149.401.444.473l3.012.367c.279-.052.454-.254.526-.603.12-.558.39-.995.81-1.31.42-.317.918-.497 1.494-.551h.203c.787 0 1.363.263 1.729.788.242.382.369 1.134.369 2.25v.445a79.287 79.287 0 0 0-2.305.209c-1.379.175-2.54.463-3.481.864-1.032.438-1.842 1.084-2.436 1.939Zm4.122 4.204c-.34-.415-.509-.958-.509-1.639l-.002.002c0-1.501.767-2.47 2.304-2.905.522-.14 1.291-.211 2.305-.211v.653c0 .559-.004.962-.013 1.207a4.992 4.992 0 0 1-.156.954 4.21 4.21 0 0 1-.433 1.087c-.401.75-.97 1.22-1.7 1.413-.037 0-.103.01-.199.027-.097.016-.169.024-.223.024-.576 0-1.032-.204-1.374-.612Z" clip-rule="evenodd"></path><path fill="#F90" d="M33.032 31.965a.899.899 0 0 1 .156-.21c.438-.295.857-.497 1.26-.601a8.627 8.627 0 0 1 1.936-.288 1.56 1.56 0 0 1 .497.026c.786.073 1.26.202 1.415.397.072.102.104.259.104.468v.183c0 .612-.166 1.332-.497 2.16-.333.829-.796 1.498-1.386 2.004-.09.072-.168.105-.238.105a.235.235 0 0 1-.104-.026c-.108-.054-.131-.149-.08-.288.649-1.519.97-2.574.97-3.168 0-.193-.037-.333-.105-.42-.175-.207-.663-.313-1.467-.313-.296 0-.645.018-1.044.054-.44.054-.841.105-1.207.157-.108 0-.174-.018-.21-.054-.036-.036-.043-.069-.025-.105 0-.017.007-.043.025-.077v-.004Z"></path><path fill="#F90" d="M9.654 31.521c.086-.14.225-.15.418-.027 4.363 2.531 9.112 3.798 14.245 3.798 3.42 0 6.8-.639 10.135-1.913l.378-.157c.166-.072.283-.122.353-.156.263-.105.468-.054.617.156.148.209.1.402-.143.576-.316.227-.717.49-1.207.785-1.5.891-3.175 1.58-5.026 2.07-1.849.486-3.654.733-5.419.733-2.723 0-5.298-.477-7.723-1.428a21.228 21.228 0 0 1-6.522-4.02c-.106-.084-.16-.174-.16-.26a.27.27 0 0 1 .054-.157Z"></path></svg>